<svg height="560" preserveAspectRatio="none" version="1.1" viewBox="0 0 1440 560" width="1440"
     xmlns="http://www.w3.org/2000/svg">
  <g fill="none" mask="url(&quot;#SvgjsMask1031&quot;)">
    <rect fill="rgba(18, 74, 133, 1)" height="560" width="1440" x="0" y="0"></rect>
    <path
        d="M0,513.768C94.667,500.816,127.644,374.967,211.25,328.711C304.337,277.21,463.131,328.446,508.712,232.321C554.033,136.743,434.181,41.196,393.979,-56.646C364.782,-127.704,341.091,-196.383,304.75,-264.067C257.855,-351.408,236.98,-463.349,150.037,-510.977C60.264,-560.156,-51.286,-537.536,-150.816,-513.63C-254.15,-488.81,-380.299,-466.24,-429.151,-371.861C-479.009,-275.539,-393.226,-164.086,-387.817,-55.76C-383.754,25.613,-425.076,105.359,-401.428,183.326C-376.074,266.916,-319.42,336.575,-251.98,392.089C-178.478,452.594,-94.323,526.673,0,513.768"
        fill="#104378"></path>
    <path
        d="M1440 886.123C1498.72 873.384 1542.203 830.1089999999999 1593.799 799.316 1647.5529999999999 767.234 1712.9560000000001 752.155 1749.56 701.3720000000001 1789.591 645.835 1813.16 575.509 1804.0230000000001 507.661 1794.857 439.597 1744.19 387.278 1700.163 334.568 1655.37 280.941 1613.392 217.461 1546.0529999999999 198.81599999999997 1478.976 180.24400000000003 1411.225 215.024 1344.927 236.20999999999998 1280.202 256.893 1208.316 269.336 1164.048 320.88599999999997 1119.843 372.363 1109.559 444.418 1107.884 512.249 1106.339 574.849 1134.1190000000001 631.128 1154.931 690.187 1177.96 755.538 1179.267 837.608 1236.369 876.856 1293.523 916.139 1372.225 900.826 1440 886.123"
        fill="#145192"></path>
  </g>
  <defs>
    <mask id="SvgjsMask1031">
      <rect fill="#ffffff" height="560" width="1440"></rect>
    </mask>
  </defs>
</svg>
