<svg height="960" preserveAspectRatio="none" version="1.1" viewBox="0 0 1440 960" width="1440"
     xmlns="http://www.w3.org/2000/svg">
  <g fill="none" mask="url(&quot;#SvgjsMask1027&quot;)">
    <rect fill="rgba(0, 89, 181, 1)" height="960" width="1440" x="0" y="0"></rect>
    <path class="Down" d="M1340 694L1339 -2" stroke="url(#SvgjsLinearGradient1028)" stroke-linecap="round"
          stroke-width="8"></path>
    <path class="Down" d="M410 585L409 1003" stroke="url(#SvgjsLinearGradient1028)" stroke-linecap="round"
          stroke-width="10"></path>
    <path class="Down" d="M85 621L84 1073" stroke="url(#SvgjsLinearGradient1028)" stroke-linecap="round"
          stroke-width="8"></path>
    <path class="Up" d="M944 578L943 850" stroke="url(#SvgjsLinearGradient1029)" stroke-linecap="round"
          stroke-width="8"></path>
    <path class="Up" d="M1074 53L1073 591" stroke="url(#SvgjsLinearGradient1029)" stroke-linecap="round"
          stroke-width="10"></path>
    <path class="Up" d="M19 399L18 759" stroke="url(#SvgjsLinearGradient1029)" stroke-linecap="round"
          stroke-width="6"></path>
    <path class="Down" d="M913 435L912 696" stroke="url(#SvgjsLinearGradient1028)" stroke-linecap="round"
          stroke-width="6"></path>
    <path class="Up" d="M566 67L565 -631" stroke="url(#SvgjsLinearGradient1029)" stroke-linecap="round"
          stroke-width="6"></path>
    <path class="Down" d="M7 18L6 -533" stroke="url(#SvgjsLinearGradient1028)" stroke-linecap="round"
          stroke-width="6"></path>
    <path class="Up" d="M81 12L80 254" stroke="url(#SvgjsLinearGradient1029)" stroke-linecap="round"
          stroke-width="10"></path>
    <path class="Up" d="M227 273L226 -270" stroke="url(#SvgjsLinearGradient1029)" stroke-linecap="round"
          stroke-width="6"></path>
    <path class="Up" d="M192 452L191 -154" stroke="url(#SvgjsLinearGradient1029)" stroke-linecap="round"
          stroke-width="6"></path>
    <path class="Down" d="M1384 251L1383 624" stroke="url(#SvgjsLinearGradient1028)" stroke-linecap="round"
          stroke-width="8"></path>
    <path class="Up" d="M1305 881L1304 1447" stroke="url(#SvgjsLinearGradient1029)" stroke-linecap="round"
          stroke-width="10"></path>
    <path class="Down" d="M1419 199L1418 -158" stroke="url(#SvgjsLinearGradient1028)" stroke-linecap="round"
          stroke-width="10"></path>
    <path class="Up" d="M653 777L652 459" stroke="url(#SvgjsLinearGradient1029)" stroke-linecap="round"
          stroke-width="10"></path>
    <path class="Up" d="M580 233L579 -281" stroke="url(#SvgjsLinearGradient1029)" stroke-linecap="round"
          stroke-width="10"></path>
    <path class="Up" d="M128 685L127 1336" stroke="url(#SvgjsLinearGradient1029)" stroke-linecap="round"
          stroke-width="8"></path>
    <path class="Down" d="M32 289L31 -316" stroke="url(#SvgjsLinearGradient1028)" stroke-linecap="round"
          stroke-width="6"></path>
    <path class="Up" d="M1023 682L1022 306" stroke="url(#SvgjsLinearGradient1029)" stroke-linecap="round"
          stroke-width="6"></path>
    <path class="Down" d="M130 293L129 555" stroke="url(#SvgjsLinearGradient1028)" stroke-linecap="round"
          stroke-width="6"></path>
    <path class="Up" d="M493 934L492 1557" stroke="url(#SvgjsLinearGradient1029)" stroke-linecap="round"
          stroke-width="10"></path>
    <path class="Down" d="M1413 598L1412 939" stroke="url(#SvgjsLinearGradient1028)" stroke-linecap="round"
          stroke-width="6"></path>
    <path class="Down" d="M763 149L762 -436" stroke="url(#SvgjsLinearGradient1028)" stroke-linecap="round"
          stroke-width="10"></path>
    <path class="Down" d="M1334 773L1333 1023" stroke="url(#SvgjsLinearGradient1028)" stroke-linecap="round"
          stroke-width="6"></path>
    <path class="Down" d="M539 410L538 32" stroke="url(#SvgjsLinearGradient1028)" stroke-linecap="round"
          stroke-width="8"></path>
    <path class="Down" d="M480 637L479 272" stroke="url(#SvgjsLinearGradient1028)" stroke-linecap="round"
          stroke-width="8"></path>
    <path class="Up" d="M1072 808L1071 131" stroke="url(#SvgjsLinearGradient1029)" stroke-linecap="round"
          stroke-width="10"></path>
    <path class="Up" d="M76 691L75 1081" stroke="url(#SvgjsLinearGradient1029)" stroke-linecap="round"
          stroke-width="8"></path>
    <path class="Up" d="M104 109L103 -255" stroke="url(#SvgjsLinearGradient1029)" stroke-linecap="round"
          stroke-width="10"></path>
    <path class="Up" d="M691 810L690 1214" stroke="url(#SvgjsLinearGradient1029)" stroke-linecap="round"
          stroke-width="6"></path>
    <path class="Up" d="M494 718L493 1157" stroke="url(#SvgjsLinearGradient1029)" stroke-linecap="round"
          stroke-width="10"></path>
    <path class="Up" d="M1403 870L1402 315" stroke="url(#SvgjsLinearGradient1029)" stroke-linecap="round"
          stroke-width="8"></path>
    <path class="Up" d="M1416 817L1415 1529" stroke="url(#SvgjsLinearGradient1029)" stroke-linecap="round"
          stroke-width="8"></path>
    <path class="Down" d="M42 956L41 1566" stroke="url(#SvgjsLinearGradient1028)" stroke-linecap="round"
          stroke-width="8"></path>
    <path class="Up" d="M686 949L685 1443" stroke="url(#SvgjsLinearGradient1029)" stroke-linecap="round"
          stroke-width="10"></path>
  </g>
  <defs>
    <mask id="SvgjsMask1027">
      <rect fill="#ffffff" height="960" width="1440"></rect>
    </mask>
    <linearGradient id="SvgjsLinearGradient1028" x1="0%" x2="0%" y1="0%" y2="100%">
      <stop offset="0" stop-color="rgba(0, 115, 239, 0)"></stop>
      <stop offset="1" stop-color="rgba(0, 115, 239, 1)"></stop>
    </linearGradient>
    <linearGradient id="SvgjsLinearGradient1029" x1="0%" x2="0%" y1="100%" y2="0%">
      <stop offset="0" stop-color="rgba(0, 115, 239, 0)"></stop>
      <stop offset="1" stop-color="rgba(0, 115, 239, 1)"></stop>
    </linearGradient>
  </defs>
</svg>
